<?xml version="1.0" standalone="no"?>
<!DOCTYPE svg PUBLIC "-//W3C//DTD SVG 20010904//EN"
 "http://www.w3.org/TR/2001/REC-SVG-20010904/DTD/svg10.dtd">
<svg version="1.0" xmlns="http://www.w3.org/2000/svg"
 width="1280.000000pt" height="1280.000000pt" viewBox="0 0 1280.000000 1280.000000"
 preserveAspectRatio="xMidYMid meet">
<metadata>
Created by potrace 1.11, written by Peter Selinger 2001-2013
</metadata>
<g transform="translate(0.000000,1280.000000) scale(0.100000,-0.100000)"
fill="#000000" stroke="none">
<path d="M7589 11786 c-2 -2 -166 -7 -364 -11 -198 -4 -403 -8 -455 -10 -127
-4 -460 -15 -645 -20 -82 -3 -206 -7 -275 -10 -69 -3 -186 -7 -260 -10 -74 -3
-182 -7 -240 -10 -58 -2 -172 -7 -255 -10 -82 -3 -186 -8 -230 -10 -44 -2
-136 -6 -205 -10 -69 -3 -168 -8 -220 -10 -52 -3 -140 -8 -195 -10 -127 -6
-268 -14 -370 -20 -44 -3 -123 -7 -175 -10 -52 -3 -126 -7 -165 -10 -38 -2
-115 -7 -170 -11 -55 -3 -122 -7 -150 -9 -27 -2 -97 -7 -155 -10 -58 -4 -121
-8 -140 -10 -19 -2 -73 -6 -120 -10 -126 -9 -199 -15 -260 -20 -30 -2 -82 -7
-115 -10 -126 -10 -191 -16 -225 -20 -19 -2 -75 -7 -125 -10 -49 -4 -92 -9
-95 -10 -3 -2 -37 -6 -77 -10 -40 -4 -85 -8 -100 -10 -15 -2 -59 -7 -98 -11
-38 -3 -72 -8 -76 -9 -3 -2 -36 -7 -75 -10 l-69 -7 -35 66 c-19 36 -42 67 -50
69 -33 8 -176 11 -685 11 -516 0 -655 -2 -655 -12 0 -5 75 -148 122 -232 14
-25 67 -121 118 -215 51 -93 104 -190 118 -215 14 -25 41 -76 62 -115 20 -38
59 -110 87 -160 27 -49 66 -119 85 -155 19 -36 76 -139 125 -230 49 -91 107
-196 128 -235 21 -38 50 -92 65 -120 15 -27 42 -77 60 -110 18 -33 44 -80 58
-105 13 -25 37 -68 53 -97 15 -28 67 -123 115 -210 47 -87 99 -180 114 -208
15 -27 64 -117 110 -200 46 -82 99 -179 118 -215 64 -119 95 -176 177 -325 15
-27 41 -75 58 -105 111 -203 487 -885 567 -1030 53 -96 119 -215 145 -265 27
-49 60 -110 75 -135 14 -25 29 -52 33 -60 4 -8 19 -35 33 -60 14 -25 39 -70
55 -100 17 -30 34 -62 40 -70 5 -8 102 -184 215 -390 114 -206 221 -401 240
-433 19 -32 34 -60 34 -62 0 -2 15 -30 34 -62 18 -32 44 -78 58 -103 14 -25
81 -146 150 -270 162 -290 165 -297 268 -480 47 -85 89 -162 93 -170 4 -8 15
-28 25 -45 10 -16 55 -95 99 -175 116 -210 127 -229 226 -405 50 -88 101 -180
115 -205 110 -197 492 -872 634 -1120 96 -168 179 -314 186 -325 6 -11 35 -63
65 -115 30 -52 64 -111 75 -130 10 -19 50 -87 87 -150 37 -63 79 -135 93 -160
13 -25 44 -78 68 -117 24 -40 44 -77 44 -83 0 -5 5 -10 10 -10 6 0 10 -5 10
-11 0 -14 418 -709 548 -911 111 -173 192 -284 224 -306 20 -15 24 -13 59 26
60 68 283 404 360 542 11 19 34 58 51 85 17 28 39 64 48 80 10 17 55 91 100
165 45 74 92 153 105 175 12 22 53 92 90 155 37 63 77 131 88 150 10 19 65
114 121 210 94 160 162 278 213 370 11 19 101 177 200 350 229 401 377 664
431 760 13 25 32 59 42 75 10 17 29 50 42 75 14 25 52 92 85 150 33 58 75 132
93 165 18 33 52 94 75 135 23 41 57 102 75 135 19 33 63 112 98 175 35 63 82
149 104 190 23 41 49 87 59 102 11 14 19 28 19 31 0 2 61 114 136 248 75 134
150 269 166 299 17 30 75 134 128 230 54 96 110 198 125 225 16 28 58 104 95
170 63 112 87 156 159 288 16 28 87 158 159 287 71 129 143 260 159 290 17 30
43 77 57 103 47 84 238 430 263 477 13 25 28 52 33 60 5 8 44 78 86 155 42 77
89 163 104 190 15 28 65 118 110 200 46 83 94 170 108 195 14 25 65 119 115
210 49 91 102 188 117 215 15 28 42 77 60 110 18 33 50 91 72 128 21 38 38 70
38 72 0 2 17 34 39 72 21 37 159 289 306 558 147 270 280 513 295 540 15 28
139 255 275 505 328 604 318 586 359 660 20 36 54 99 76 140 22 41 44 82 50
90 12 20 110 202 110 205 0 2 -305 3 -677 3 -641 1 -683 2 -763 21 -76 17
-141 30 -237 46 -18 3 -45 7 -60 10 -16 2 -53 7 -83 11 -30 3 -66 7 -80 9 -14
2 -59 6 -100 10 -41 4 -86 8 -100 10 -14 2 -59 6 -100 10 -41 3 -95 8 -120 10
-25 2 -97 7 -160 10 -63 4 -140 8 -170 10 -30 3 -120 7 -200 10 -80 3 -192 8
-250 11 -116 6 -2045 15 -2051 10z m1731 -471 c305 -3 589 -8 630 -9 287 -12
422 -18 470 -21 30 -3 93 -7 140 -10 47 -3 112 -8 145 -10 54 -4 118 -9 215
-20 19 -2 67 -7 105 -10 39 -4 72 -9 74 -11 17 -16 -415 -173 -599 -218 -8 -2
-51 -13 -95 -25 -83 -21 -379 -86 -437 -96 -18 -3 -40 -8 -48 -10 -13 -4 -371
-65 -460 -79 -19 -3 -44 -8 -55 -10 -12 -2 -48 -7 -80 -11 -33 -4 -67 -9 -76
-10 -9 -2 -40 -6 -70 -10 -30 -3 -65 -8 -79 -10 -14 -2 -44 -7 -67 -10 -24 -3
-62 -7 -85 -10 -24 -3 -61 -8 -83 -11 -22 -2 -56 -6 -75 -9 -76 -10 -118 -14
-185 -20 -38 -3 -106 -10 -150 -15 -44 -5 -107 -12 -140 -15 -77 -7 -160 -15
-205 -20 -53 -6 -135 -13 -235 -20 -49 -3 -110 -8 -135 -10 -25 -3 -85 -7
-135 -10 -49 -3 -106 -8 -125 -10 -19 -2 -78 -7 -130 -10 -52 -3 -115 -8 -140
-10 -25 -2 -97 -7 -160 -10 -63 -3 -149 -8 -190 -10 -41 -2 -122 -7 -180 -10
-58 -3 -148 -7 -200 -10 -151 -9 -245 -14 -390 -19 -128 -6 -187 -8 -600 -22
-384 -13 -1403 -18 -1690 -9 -188 6 -464 16 -525 20 -33 2 -116 6 -185 10 -69
3 -136 8 -150 10 -14 2 -59 7 -100 10 -132 10 -278 23 -320 30 -14 2 -45 6
-70 10 -25 3 -61 7 -80 10 -19 3 -55 7 -80 10 -25 4 -108 18 -185 31 -77 14
-153 28 -170 30 -16 3 -35 11 -41 17 -16 16 -167 307 -162 312 2 3 31 7 63 10
33 3 76 8 95 10 19 3 58 7 85 10 28 4 61 8 75 10 14 2 57 7 95 11 39 4 81 8
95 9 14 2 61 6 105 10 44 4 87 8 95 10 8 2 53 6 100 9 47 4 101 9 120 11 19 2
73 7 120 10 47 3 105 8 130 10 25 3 81 7 125 10 44 3 100 8 125 10 25 2 88 7
140 10 93 6 148 10 280 20 36 3 112 7 170 10 58 3 130 7 160 9 30 3 109 8 175
11 66 3 147 8 180 10 33 2 116 7 185 10 69 3 163 7 210 10 275 14 452 22 659
30 78 3 182 7 230 10 123 6 508 20 856 31 105 3 235 7 290 9 90 3 429 12 795
20 74 2 385 7 690 10 305 4 557 8 558 10 2 2 9 2 15 0 7 -2 262 -6 567 -10z
m1277 -1247 c-30 -57 -92 -175 -137 -263 -83 -159 -127 -246 -275 -530 -43
-82 -117 -224 -164 -315 -47 -91 -91 -174 -97 -184 -10 -17 -140 -55 -244 -72
-19 -3 -66 -12 -105 -21 -38 -8 -83 -17 -100 -19 -16 -3 -46 -9 -65 -14 -19
-5 -55 -12 -80 -15 -47 -6 -269 -41 -330 -51 -80 -14 -631 -82 -715 -89 -38
-3 -83 -7 -100 -10 -16 -2 -59 -7 -95 -10 -94 -8 -161 -15 -190 -20 -14 -2
-61 -7 -105 -10 -120 -8 -205 -15 -255 -20 -25 -3 -85 -7 -135 -11 -49 -3
-106 -7 -125 -9 -75 -7 -359 -27 -585 -40 -49 -3 -128 -7 -175 -10 -218 -13
-423 -24 -560 -30 -58 -2 -166 -7 -240 -10 -712 -34 -1979 -39 -2290 -10 -25
2 -93 6 -151 9 -91 5 -182 14 -185 19 0 1 -31 61 -69 132 -37 72 -91 175 -120
230 -29 55 -90 172 -135 260 -45 88 -115 223 -155 300 -199 383 -189 360 -157
351 18 -5 85 -12 222 -21 47 -4 103 -8 125 -10 22 -2 92 -7 155 -10 63 -4 142
-8 175 -10 400 -25 1961 -25 2410 0 39 2 147 7 240 10 388 13 621 23 928 41
56 3 129 7 162 9 141 7 274 16 335 21 36 2 94 7 130 9 97 7 198 14 260 20 30
2 84 7 120 10 154 13 187 16 230 20 25 3 77 8 115 11 39 4 81 8 95 9 14 1 61
6 105 10 44 4 82 8 85 10 3 2 46 6 95 10 50 4 92 8 95 10 4 3 89 13 160 20 51
5 176 22 220 30 14 2 50 7 80 10 30 3 64 8 75 10 11 3 36 7 55 9 19 3 78 12
130 20 52 9 112 18 134 22 21 3 48 8 60 10 11 2 50 9 86 14 36 6 108 19 160
30 52 11 106 22 120 24 144 24 629 148 760 194 30 11 59 20 63 21 4 0 -17 -45
-46 -101z m-1067 -2043 c0 -3 -20 -43 -44 -88 -24 -45 -74 -140 -111 -212
-114 -219 -176 -338 -205 -390 -15 -27 -64 -120 -108 -205 -44 -85 -104 -198
-132 -250 -28 -52 -65 -123 -82 -157 -24 -46 -38 -63 -57 -67 -30 -6 -1101 0
-1241 8 -52 2 -160 8 -240 11 -80 4 -163 8 -185 10 -22 2 -103 6 -180 10 -77
4 -156 8 -175 10 -19 2 -82 6 -140 10 -58 4 -123 8 -145 10 -22 2 -85 6 -140
10 -170 11 -335 24 -385 30 -19 2 -71 7 -115 10 -44 4 -100 8 -125 10 -25 2
-81 6 -125 10 -44 3 -96 8 -115 10 -40 5 -107 12 -200 20 -36 3 -81 8 -100 10
-19 3 -82 9 -140 15 -58 6 -114 12 -125 14 -12 2 -52 7 -90 10 -39 4 -81 9
-95 11 -14 3 -51 7 -83 10 -32 2 -65 6 -75 9 -9 2 -44 7 -77 11 -33 3 -103 12
-155 20 -52 7 -120 17 -150 20 -30 4 -57 8 -60 10 -3 2 -30 6 -60 10 -30 3
-62 8 -70 10 -8 2 -37 6 -63 10 -26 3 -71 10 -99 15 -28 6 -52 10 -53 10 -2 0
-22 37 -45 83 -24 45 -55 105 -70 132 -15 28 -66 125 -113 216 l-87 166 103
-3 c147 -4 1054 -4 1237 0 85 2 247 7 360 11 113 3 255 8 315 10 61 2 157 6
215 9 58 3 161 8 230 11 327 14 386 17 583 30 75 5 133 8 327 20 52 3 129 8
170 10 41 3 102 7 135 10 131 12 153 14 240 20 50 3 106 8 125 11 19 2 69 6
110 9 41 3 95 7 120 10 25 2 72 7 105 10 33 4 76 8 95 10 19 2 60 7 90 10 30
3 71 8 90 10 19 2 103 11 185 20 297 32 988 140 1150 179 71 17 75 18 75 11z
m-5342 -1589 c20 -3 62 -8 92 -11 30 -3 66 -8 80 -10 14 -2 49 -7 79 -10 30
-4 61 -8 70 -10 9 -1 48 -6 86 -9 87 -8 151 -15 190 -21 17 -2 62 -7 100 -10
39 -4 81 -8 95 -10 14 -2 61 -7 105 -10 44 -4 87 -9 97 -10 9 -2 51 -6 95 -10
43 -4 92 -8 108 -9 17 -2 66 -7 110 -11 44 -3 100 -8 125 -11 25 -2 79 -6 120
-9 72 -5 108 -8 215 -20 28 -2 92 -7 143 -10 52 -3 110 -8 130 -10 21 -2 87
-6 147 -10 61 -4 128 -8 150 -10 89 -8 282 -19 495 -30 69 -3 161 -8 205 -10
325 -16 1173 -25 1282 -13 l42 5 -51 -96 c-28 -53 -73 -138 -100 -188 -56
-105 -31 -91 -258 -142 -122 -27 -186 -40 -290 -56 -19 -3 -57 -10 -85 -15
-27 -5 -66 -11 -85 -14 -46 -7 -208 -27 -240 -31 -14 -1 -47 -5 -75 -9 -93
-12 -113 -14 -187 -21 -40 -3 -89 -8 -108 -10 -19 -2 -71 -7 -115 -10 -44 -4
-87 -9 -95 -10 -9 -2 -70 -6 -135 -10 -66 -4 -138 -9 -160 -11 -478 -40 -1418
-50 -1800 -19 -152 12 -191 17 -196 23 -4 4 -35 61 -69 127 -34 66 -70 134
-80 150 -9 17 -43 80 -75 140 -32 61 -70 133 -85 160 -15 28 -55 104 -90 170
-35 66 -67 124 -71 130 -5 5 -9 12 -9 16 0 7 11 7 98 -5z m3752 -1403 c0 -5
-8 -21 -18 -38 -10 -16 -40 -70 -67 -120 -58 -108 -145 -267 -172 -315 -11
-19 -71 -127 -133 -240 -62 -113 -121 -217 -132 -232 -10 -14 -18 -31 -18 -37
0 -7 -5 -17 -10 -24 -6 -7 -18 -22 -28 -34 -15 -20 -30 -23 -137 -29 -251 -14
-592 -6 -920 22 -185 16 -268 24 -295 29 -14 2 -50 7 -80 10 -131 14 -446 73
-560 105 -26 7 -41 20 -55 47 -11 20 -58 105 -104 188 -113 204 -199 360 -230
420 l-26 50 400 0 c346 1 653 8 870 20 33 2 114 6 179 10 66 3 138 8 160 10
23 2 84 7 136 10 52 3 115 7 140 10 25 2 74 6 110 10 105 9 153 14 190 19 19
3 65 8 102 11 37 3 77 8 90 10 13 2 46 6 73 10 28 3 77 10 110 15 33 5 78 12
100 15 84 13 162 26 225 39 79 17 100 18 100 9z m-2175 -1538 c146 -20 244
-31 345 -40 36 -3 79 -7 95 -9 17 -2 80 -7 140 -10 61 -4 142 -9 180 -12 39
-3 170 -6 293 -6 l222 0 -19 -32 c-46 -78 -218 -363 -238 -395 -12 -20 -30
-49 -39 -66 -9 -16 -63 -100 -120 -185 -107 -161 -205 -280 -230 -280 -55 0
-329 403 -633 932 -60 105 -69 124 -53 115 4 -3 30 -8 57 -12z"/>
</g>
</svg>
